<svg width="51" height="21" viewBox="0 0 51 21" fill="none" xmlns="http://www.w3.org/2000/svg">
<path d="M16.851 0.850769C20.874 0.818845 25.6641 0.691865 27.6117 1.13885C29.5561 1.58545 37.4754 5.4641 37.5092 5.48065C37.5092 5.48065 42.1705 7.87509 45.8422 8.60956C49.1697 9.2751 50.295 9.75743 50.643 12.0519C50.7023 12.4431 50.728 12.839 50.728 13.2346V15.0217C50.8884 15.0943 50.9994 15.2566 50.9994 15.4435V16.3273C50.9994 16.3662 50.9974 16.4047 50.9936 16.4426C50.9821 16.5558 50.9541 16.6641 50.9115 16.7648C50.8546 16.8997 50.7723 17.0213 50.6703 17.1232C50.5176 17.276 50.3208 17.385 50.101 17.4299C50.0279 17.4448 49.9519 17.4523 49.8744 17.4523H46.4574L46.3598 17.4474C45.8795 17.3948 45.5258 16.9589 45.5795 16.466C45.5818 16.4447 45.5823 16.4229 45.5844 16.4016C45.591 16.3326 45.5962 16.2633 45.6 16.1935C45.5048 16.1955 45.4064 16.1982 45.3051 16.2004C45.1863 18.3721 43.3866 20.0939 41.1869 20.0891C39.0496 20.0842 37.2967 18.4509 37.099 16.3654C36.9885 16.3674 36.881 16.3685 36.7768 16.3703C36.7833 16.498 36.7935 16.6244 36.81 16.7492C36.8378 16.961 36.771 17.1613 36.644 17.3088C36.6121 17.3458 36.5765 17.3796 36.5375 17.4094C36.421 17.4982 36.275 17.551 36.1147 17.551H14.3188C14.0228 17.5507 13.8031 17.2815 13.8569 16.9904C13.8873 16.8256 13.9075 16.6578 13.9203 16.4875C13.8206 16.4735 13.7108 16.458 13.5922 16.4406C13.3593 18.4978 11.6134 20.0946 9.49553 20.09C7.22231 20.085 5.3831 18.237 5.38811 15.9631C5.38875 15.6821 5.41789 15.4078 5.47209 15.1428C5.29331 15.1133 5.1339 15.0872 4.99748 15.0646C4.99261 15.0907 4.98731 15.1166 4.98283 15.1428C4.97193 15.2068 4.96298 15.2713 4.95451 15.3361C4.95 15.3706 4.94366 15.4049 4.93987 15.4396C4.91644 15.6538 4.71861 15.8054 4.50627 15.7687L1.89983 15.0803C1.71269 15.0308 1.54043 14.9488 1.38908 14.842C1.21813 14.7213 1.07528 14.5671 0.964279 14.3918C0.911333 14.3082 0.864341 14.2207 0.82756 14.1281C0.763178 13.9658 0.886462 13.79 1.06096 13.7941H1.06291C1.0525 13.7248 1.04631 13.6539 1.04631 13.5822V10.7023C0.9339 10.6505 0.855881 10.5373 0.855881 10.4055V8.88885C0.856042 8.757 0.933848 8.64367 1.04631 8.59198V7.88885C1.04631 7.21631 1.52877 6.63989 2.19084 6.52167L2.8344 6.40643C2.84443 6.403 6.38173 5.19101 8.42229 3.59686C10.4656 2.00054 12.8283 0.882764 16.851 0.850769Z" fill="black"/>
<path d="M3.6509 14.1677C3.6509 14.1677 13.6366 15.8248 13.7564 15.7529C13.8761 15.6811 15.1692 10.1016 15.1692 10.1016C15.1692 10.1016 6.91173 8.61688 6.77799 8.61688C6.64425 8.61688 4.84824 10.0537 4.82431 10.1495C4.80035 10.2452 3.6509 14.1677 3.6509 14.1677Z" fill="#183658"/>
<path d="M34.111 15.5854C34.3505 15.6093 46.4435 15.3502 46.4435 15.3502L45.5336 12.5682C45.5336 12.5682 43.8573 10.0333 42.9713 10.0794C42.0853 10.1256 36.8159 9.27119 35.9065 9.90194C34.9971 10.5327 34.1829 10.0298 33.7519 11.5384C33.3208 13.0471 32.9846 13.216 33.3204 14.1253C33.656 15.0346 34.111 15.5854 34.111 15.5854Z" fill="#183658"/>
<path d="M12.8108 15.1715C12.8158 12.8976 10.977 11.0501 8.70381 11.0451C6.4306 11.0401 4.58374 12.8794 4.57874 15.1534C4.57373 17.4274 6.41248 19.2749 8.6857 19.2799C10.9589 19.2849 12.8058 17.4455 12.8108 15.1715Z" fill="#1A1A1A"/>
<path d="M8.69307 18.0255C10.2747 18.0255 11.5569 16.7429 11.5569 15.1608C11.5569 13.5786 10.2747 12.296 8.69307 12.296C7.11144 12.296 5.82927 13.5786 5.82927 15.1608C5.82927 16.7429 7.11144 18.0255 8.69307 18.0255Z" fill="#9E9DA2"/>
<path d="M8.69397 17.0765C9.75173 17.0765 10.6092 16.2187 10.6092 15.1606C10.6092 14.1025 9.75173 13.2448 8.69397 13.2448C7.63622 13.2448 6.77874 14.1025 6.77874 15.1606C6.77874 16.2187 7.63622 17.0765 8.69397 17.0765Z" fill="#D8D9DD"/>
<path d="M44.5026 15.1714C44.5076 12.8974 42.6689 11.05 40.3956 11.045C38.1224 11.04 36.2756 12.8793 36.2706 15.1533C36.2656 17.4273 38.1043 19.2747 40.3775 19.2797C42.6507 19.2847 44.4976 17.4454 44.5026 15.1714Z" fill="#1A1A1A"/>
<path d="M40.3842 18.0256C41.9658 18.0256 43.248 16.743 43.248 15.1608C43.248 13.5787 41.9658 12.2961 40.3842 12.2961C38.8025 12.2961 37.5204 13.5787 37.5204 15.1608C37.5204 16.743 38.8025 18.0256 40.3842 18.0256Z" fill="#9E9DA2"/>
<path d="M40.3836 17.0766C41.4414 17.0766 42.2989 16.2188 42.2989 15.1607C42.2989 14.1026 41.4414 13.2448 40.3836 13.2448C39.3259 13.2448 38.4684 14.1026 38.4684 15.1607C38.4684 16.2188 39.3259 17.0766 40.3836 17.0766Z" fill="#D8D9DD"/>
<path d="M49.8332 11.2422C49.4852 8.94757 48.3603 8.46565 45.0327 7.8001C41.3609 7.06574 36.6993 4.67108 36.6993 4.67108C36.6993 4.67108 28.7491 0.775737 26.8014 0.328746C24.8537 -0.118244 20.0644 0.00945342 16.0414 0.0413775C12.0184 0.073328 9.65564 1.1908 7.61218 2.78727C5.56872 4.38369 2.02465 5.59699 2.02465 5.59699L1.38081 5.71194C0.718739 5.83017 0.236633 6.40599 0.236633 7.07853V12.7726C0.236633 13.4174 0.670907 13.9813 1.29424 14.1459L3.62106 14.7606C3.81058 14.7932 3.98677 14.6585 4.00766 14.4673C4.2625 12.1378 6.27622 10.3675 8.67758 10.3704C11.231 10.3734 13.325 12.4715 13.3234 15.025C13.3232 15.3151 13.2964 15.599 13.2453 15.8744C13.1925 16.1587 13.4109 16.4208 13.7001 16.4208H35.1144C35.5305 16.4208 35.8538 16.0552 35.7986 15.6428C35.7721 15.4443 35.7581 15.2419 35.7574 15.0363C35.7498 12.5142 37.7893 10.4233 40.3109 10.3714C42.9248 10.3175 45.0606 12.4203 45.0606 15.022C45.0606 15.1942 45.0512 15.3643 45.0329 15.5316C44.9811 16.0056 45.3479 16.4208 45.8247 16.4208H48.9041C49.4639 16.4208 49.9178 15.967 49.9178 15.4071V12.4245C49.9178 12.0289 49.8925 11.6334 49.8332 11.2422Z" fill="#FEDD00"/>
<path d="M0.372088 7.75229H2.90829C3.12553 7.75229 3.2727 7.97354 3.18872 8.1739L2.9038 8.8537C2.63218 9.50176 1.99816 9.92347 1.29551 9.92347H0.372088C0.191361 9.92347 0.0448265 9.77694 0.0448265 9.59621V8.07958C0.0448265 7.89882 0.191361 7.75229 0.372088 7.75229Z" fill="#CF283C"/>
<path d="M45.7994 8.80605C47.1961 9.01989 48.8046 10.3425 48.8046 10.3425C49.1891 10.7557 48.8715 11.4265 48.3082 11.3909L45.585 11.2188C45.0193 11.1831 44.537 10.7962 44.3793 10.2518C44.1144 9.33729 44.3398 8.58253 45.7994 8.80605Z" fill="#F3FCFF"/>
<path d="M0.251237 12.9847C0.0766572 12.9805 -0.0471082 13.1559 0.0172941 13.3183C0.199446 13.7773 0.590108 14.1381 1.0896 14.27L3.6968 14.9587C3.90913 14.9954 4.10656 14.8444 4.12999 14.6302C4.17827 14.1887 4.28365 13.7655 4.43752 13.3666C4.48965 13.2315 4.39132 13.0858 4.24653 13.0823L0.251237 12.9847Z" fill="black"/>
<path d="M45.0828 14.0579C44.8846 14.053 44.7318 14.2267 44.7572 14.4233C44.7854 14.6416 44.8 14.8642 44.8 15.0902C44.8 15.2814 44.7895 15.47 44.7692 15.6558C44.7117 16.1817 45.1188 16.6424 45.6478 16.6424H49.0647C49.6859 16.6424 50.1895 16.1388 50.1895 15.5176V14.6333C50.1895 14.3826 49.9895 14.1776 49.7389 14.1715L45.0828 14.0579Z" fill="black"/>
<path opacity="0.5" d="M36.7053 5.98961C36.66 5.9647 32.1335 3.4813 29.1316 2.09093C26.1597 0.714452 22.8421 0.860381 22.6991 0.86761C22.3179 0.85885 14.3806 0.686723 11.9404 1.44728C9.48226 2.21346 6.28074 5.70361 6.14566 5.85181L6.10835 5.89273L6.9693 9.9325L7.06151 9.92733C9.56521 9.78591 11.4819 10.4524 12.6037 11.8542C13.4516 12.9139 13.5564 14.0331 13.5573 14.0443L13.5656 14.1404L22.5928 14.3724V14.3731L22.697 14.3751L22.8083 14.3779V14.3773L35.3866 14.6226L35.3883 14.5144C35.4511 10.4268 36.7434 6.1582 36.7565 6.11559L36.7821 6.03174L36.7053 5.98961ZM13.7605 13.9298C13.7171 13.6267 13.5267 12.6674 12.7792 11.7286C11.9736 10.7168 10.3429 9.55049 7.14169 9.70726L6.34235 5.95655C6.71293 5.55824 9.74145 2.35841 12.0046 1.65302C14.2688 0.947312 21.623 1.06251 22.5928 1.081V14.1568L13.7605 13.9298ZM35.1747 14.4029L22.8083 14.1617V1.07918C23.3902 1.06237 26.3605 1.04493 29.041 2.28649C31.8219 3.57448 35.9175 5.80442 36.5254 6.13678C36.3452 6.7531 35.2522 10.636 35.1747 14.4029Z" fill="#FEDD00"/>
<path opacity="0.5" d="M0.0176353 13.3181C0.199787 13.7771 0.590449 14.138 1.08994 14.2699L3.69714 14.9586C3.90947 14.9952 4.1069 14.8442 4.13033 14.63C4.14896 14.4596 4.17632 14.292 4.21149 14.1274L0.0176353 13.3181Z" fill="#FEDD00"/>
<path opacity="0.5" d="M44.7934 15.3321C44.7884 15.4408 44.7804 15.5487 44.7687 15.6556C44.7112 16.1815 45.1182 16.6422 45.6473 16.6422H49.0641C49.6854 16.6422 50.189 16.1386 50.189 15.5174V15.3321H44.7934Z" fill="#FEDD00"/>
<path d="M35.9596 15.3324C35.9589 15.0992 35.9756 14.8697 36.0083 14.645C36.0475 14.3752 35.8463 14.1307 35.5737 14.124L13.3007 13.5804C13.0577 13.5744 12.8826 13.8063 12.9488 14.0402C13.0644 14.4481 13.1262 14.8777 13.126 15.3209C13.1258 15.6146 13.0987 15.902 13.0472 16.1808C12.9935 16.4721 13.2132 16.7417 13.5094 16.7417H35.3051C35.7327 16.7417 36.0559 16.3635 36.0002 15.9396C35.974 15.7407 35.9602 15.5381 35.9596 15.3324Z" fill="black"/>
<path opacity="0.5" d="M35.9588 15.3322C35.9587 15.3283 35.9589 15.3245 35.9589 15.3207H13.1251C13.125 15.6144 13.0979 15.9018 13.0464 16.1807C12.9927 16.4719 13.2124 16.7415 13.5085 16.7415H35.3043C35.7319 16.7415 36.0551 16.3633 35.9994 15.9394C35.9732 15.7406 35.9594 15.538 35.9588 15.3322Z" fill="#FEDD00"/>
<path d="M11.1471 7.6098H8.3683C8.30247 7.6098 8.24907 7.55645 8.24907 7.4906V7.24209C8.24907 7.17627 8.30244 7.12286 8.3683 7.12286H11.1471C11.213 7.12286 11.2664 7.17624 11.2664 7.24209V7.4906C11.2664 7.55642 11.213 7.6098 11.1471 7.6098Z" fill="black"/>
<path d="M26.4672 7.85322H23.6884C23.6226 7.85322 23.5692 7.79985 23.5692 7.734V7.48549C23.5692 7.41966 23.6225 7.36629 23.6884 7.36629H26.4672C26.5331 7.36629 26.5865 7.41963 26.5865 7.48549V7.734C26.5864 7.79985 26.5331 7.85322 26.4672 7.85322Z" fill="black"/>
<path d="M8.7798 6.37129L21.0889 6.48761C21.0889 6.48761 21.8423 6.46732 21.9448 5.7584C22.0474 5.04945 22.0387 2.01307 22.0387 2.01307C22.0387 2.01307 21.9494 1.40345 21.3655 1.39561C21.0106 1.39084 18.0367 1.17832 15.1442 1.53064C12.7847 1.81806 10.6019 2.89575 8.94712 4.55111L8.07337 5.42515C8.07337 5.42515 7.4841 6.35905 8.7798 6.37129Z" fill="#183658"/>
<path d="M23.409 2.39833V5.5819C23.409 5.99552 23.7262 6.33526 24.1276 6.35141L33.7998 6.74033C34.0219 6.74927 34.2393 6.64894 34.3666 6.46138C34.5402 6.20548 34.5603 5.78453 33.6936 5.22016C32.1864 4.23872 28.3518 2.116 26.9333 1.91058C26.0303 1.77982 24.849 1.72307 24.1095 1.69904C23.7261 1.68664 23.409 2.00332 23.409 2.39833Z" fill="#183658"/>
</svg>
