<svg width="316" height="957" viewBox="0 0 316 957" fill="none" xmlns="http://www.w3.org/2000/svg">
<g clip-path="url(#clip0_21_10)">
<path d="M30 10H227.958C271.06 10 306 44.9404 306 88.0416C306 131.143 271.06 166.083 227.958 166.083H88.2654C45.0769 166.083 10.1004 201.16 10.2241 244.348C10.3473 287.362 45.2515 322.167 88.2655 322.167H227.958C271.06 322.167 306 357.107 306 400.208C306 443.309 271.06 478.25 227.958 478.25H88.4886C45.3874 478.25 10.4469 513.19 10.4469 556.292C10.4469 599.393 45.3874 634.333 88.4886 634.333H227.958C271.06 634.333 306 669.274 306 712.375C306 755.476 271.06 790.416 227.958 790.416H88.7387C45.4994 790.416 10.4469 825.469 10.4469 868.708C10.4469 911.948 45.4993 947 88.7387 947H306" stroke="#1F2125" stroke-width="20"/>
<path opacity="0.5" d="M30 10H227.958C271.06 10 306 44.9404 306 88.0416C306 131.143 271.06 166.083 227.958 166.083H88.2654C45.0769 166.083 10.1004 201.16 10.2241 244.348C10.3473 287.362 45.2515 322.167 88.2655 322.167H227.958C271.06 322.167 306 357.107 306 400.208C306 443.309 271.06 478.25 227.958 478.25H88.4886C45.3874 478.25 10.4469 513.19 10.4469 556.292C10.4469 599.393 45.3874 634.333 88.4886 634.333H227.958C271.06 634.333 306 669.274 306 712.375C306 755.476 271.06 790.416 227.958 790.416H88.7387C45.4994 790.416 10.4469 825.469 10.4469 868.708C10.4469 911.948 45.4993 947 88.7387 947H306" stroke="white" stroke-dasharray="6 6"/>
</g>
<defs>
<clipPath id="clip0_21_10">
<rect width="316" height="957" fill="white"/>
</clipPath>
</defs>
</svg>
