<svg width="11" height="15" viewBox="0 0 11 15" fill="none" xmlns="http://www.w3.org/2000/svg">
<path d="M1.36426 13.7876C1.41952 13.7976 1.47108 13.7922 1.5332 13.7534C3.49376 11.5577 4.52763 10.9621 6.97559 9.41843C7.26806 9.23329 7.70093 9.01018 8.09863 8.78952C8.51707 8.55736 8.93534 8.30772 9.27734 8.03366C9.62573 7.75447 9.84649 7.488 9.93555 7.24069C10.0117 7.02885 10.0111 6.7794 9.78906 6.44284C9.71006 6.32322 9.48278 6.11298 9.09082 5.82858C8.7184 5.55837 8.25372 5.25984 7.76367 4.95749C6.80814 4.36795 5.71871 3.74368 5.18164 3.3569C4.90695 3.15905 4.56974 2.88363 4.21484 2.59128C3.85435 2.29432 3.46817 1.97399 3.08008 1.67136C2.69134 1.36823 2.31136 1.0914 1.96679 0.88132C1.61143 0.664668 1.33935 0.54781 1.1582 0.518039C0.742615 0.44996 0.617649 0.584686 0.568357 0.672336C0.487907 0.81562 0.453257 1.11627 0.608396 1.54245L0.608396 1.54441C0.653405 1.66925 0.775786 1.85784 0.992185 2.10202C1.2008 2.33741 1.46653 2.5909 1.75586 2.84421C2.33673 3.35275 2.96989 3.82592 3.36621 4.1362L3.36719 4.13718C3.70893 4.40609 4.29161 4.88352 4.86719 5.35398C5.44766 5.82843 6.02055 6.29596 6.35156 6.55319L6.83301 6.92624L6.38574 7.31394L6.38183 7.31784L6.36523 7.33249L4.41504 9.01999L4.41308 9.02194L1.32617 11.6616C1.18981 11.825 1.01064 12.0546 0.866211 12.2905C0.699715 12.5624 0.63833 12.7489 0.638672 12.8305C0.642272 13.0407 0.798407 13.3836 1.05469 13.6137C1.17562 13.7223 1.28518 13.7732 1.36426 13.7876Z" fill="#1F2125" stroke="black"/>
</svg>
