<svg width="17" height="16" viewBox="0 0 17 16" fill="none" xmlns="http://www.w3.org/2000/svg">
<path d="M10.0702 8.70976L12.873 11.987C13.2372 12.2941 13.9795 12.8614 14.4743 12.8547C15.2716 12.8414 16.4331 11.8402 15.8351 11.0459C13.5465 9.01014 12.9568 7.98223 11.3279 5.39915C10.5925 4.23777 9.38294 1.02728 7.4723 2.28878C6.6132 2.85612 4.88126 6.16673 4.09776 7.25469C3.31427 8.34266 1.21807 10.5253 1.02563 11.7C0.833189 12.8747 1.75414 13.2351 2.79881 12.8547C3.70601 12.5276 5.12181 10.5987 5.7541 9.79105C6.3108 9.08354 7.74176 7.36344 8.29158 6.65593L10.0702 8.70976Z" fill="#1F2125"/>
</svg>
