<svg width="17" height="16" viewBox="0 0 17 16" fill="none" xmlns="http://www.w3.org/2000/svg">
<path d="M6.92978 7.29024L4.12703 4.01298C3.76278 3.70594 3.02051 3.1386 2.52567 3.14528C1.72843 3.15863 0.566929 4.15982 1.16486 4.9541C3.4535 6.98985 4.04321 8.01777 5.67207 10.6008C6.40745 11.7622 7.61707 14.9727 9.5277 13.7112C10.3868 13.1439 12.1187 9.83327 12.9022 8.7453C13.6857 7.65734 15.7819 5.47474 15.9744 4.30001C16.1668 3.12528 15.2459 2.76485 14.2012 3.1453C13.294 3.47236 11.8782 5.40132 11.2459 6.20895C10.6892 6.91646 9.25824 8.63656 8.70842 9.34407L6.92978 7.29024Z" fill="#1F2125"/>
</svg>
