<svg width="36" height="36" viewBox="0 0 36 36" fill="none" xmlns="http://www.w3.org/2000/svg">
<rect width="36" height="36" rx="18" fill="#FF3131"/>
<path d="M23.2003 22.3111C22.6164 21.0665 18.9578 17.4786 17.6714 16.2335C16.3851 14.9884 13.9057 11.7976 12.3906 11.3167C10.8756 10.8358 10.2217 11.9831 10.5228 13.4368C10.78 14.6986 13.0555 16.9414 14.0007 17.9327C14.8281 18.8047 19.3431 23.7049 20.1719 24.5679C20.1719 24.5679 20.1587 24.5717 20.1617 24.5757C21.2976 26.1001 26.6818 26.1931 23.2003 22.3111Z" fill="#FEFDF9"/>
<path d="M13.5353 24.2003C14.7799 23.6164 18.3678 19.9578 19.6129 18.6714C20.8581 17.3851 24.0488 14.9057 24.5297 13.3906C25.0106 11.8756 23.8633 11.2217 22.4096 11.5228C21.1478 11.78 18.905 14.0555 17.9138 15.0007C17.0417 15.8281 12.1415 20.3431 11.2786 21.1719C11.2786 21.1719 11.2748 21.1587 11.2708 21.1617C9.74638 22.2976 9.65335 27.6818 13.5353 24.2003Z" fill="#FEFDF9"/>
</svg>
