<svg width="53" height="52" viewBox="0 0 53 52" fill="none" xmlns="http://www.w3.org/2000/svg">
<rect x="1" y="0.5" width="51" height="51" rx="25.5" fill="#FF3131"/>
<rect x="1" y="0.5" width="51" height="51" rx="25.5" stroke="#1F2125"/>
<path d="M26.2021 14.5C26.6711 14.5 27.1238 14.6739 27.4727 14.9873L27.6152 15.1152H27.6172L36.2764 22.8965V22.8955C36.4745 23.0737 36.6327 23.2918 36.7412 23.5352C36.8497 23.7785 36.9052 24.0421 36.9053 24.3086V35.5996C36.9052 36.1036 36.705 36.587 36.3486 36.9434C35.9922 37.2997 35.5089 37.5 35.0049 37.5H31.8047C31.3006 37.5 30.8164 37.2998 30.46 36.9434C30.1037 36.587 29.9034 36.1035 29.9033 35.5996V29.1982C29.9033 28.8534 29.7663 28.5222 29.5225 28.2783C29.2787 28.0346 28.9482 27.8975 28.6035 27.8975H23.8018C23.4571 27.8976 23.1265 28.0346 22.8828 28.2783C22.639 28.5222 22.502 28.8534 22.502 29.1982V35.5996C22.5019 36.1036 22.3017 36.587 21.9453 36.9434C21.5889 37.2997 21.1056 37.5 20.6016 37.5H17.4004C16.8964 37.4999 16.413 37.2997 16.0566 36.9434C15.7003 36.587 15.5001 36.1036 15.5 35.5996V24.3086L15.5107 24.1094C15.5316 23.9115 15.5837 23.7176 15.665 23.5352C15.7735 23.292 15.931 23.0736 16.1289 22.8955L16.1299 22.8965L24.9307 14.9863L24.9316 14.9873C25.2805 14.6739 25.7332 14.5 26.2021 14.5Z" fill="#FEDD00" stroke="#1F2125"/>
</svg>
