<svg width="26" height="24" viewBox="0 0 26 24" fill="none" xmlns="http://www.w3.org/2000/svg">
<path d="M12.9436 0.018764C13.497 -0.0571934 14.1318 0.100146 14.5767 0.441954C15.4881 1.131 16.2531 3.69727 16.9585 4.76068C17.1972 5.11876 17.5064 5.28695 17.9188 5.37376C19.1232 5.62876 21.2012 5.62876 22.2429 6.07365C23.3552 6.54568 23.8055 7.8912 23.3172 8.97631C22.9211 9.84982 20.9137 11.4069 20.1595 12.2154C19.7797 12.6223 19.7146 12.9261 19.7526 13.4849C19.8503 14.8467 20.7618 17.337 20.2192 18.5198C19.8882 19.2414 18.993 19.7731 18.2063 19.7568C17.208 19.7351 14.9781 18.1943 13.9256 17.7385C13.4861 17.5486 13.2257 17.4944 12.7645 17.6626C11.7662 18.0261 10.5889 18.8399 9.60145 19.3228C8.79847 19.7134 8.27219 19.9305 7.38241 19.5615C4.82698 18.4927 6.97549 14.8956 6.75847 12.9803C6.72592 12.6982 6.54145 12.4215 6.35156 12.2154C5.54315 11.3473 3.34039 9.67078 3.07454 8.63993C2.72731 7.27269 3.53028 6.18759 4.86496 5.91631C6.08028 5.66674 7.44209 5.65046 8.6357 5.36833C9.03177 5.2761 9.32475 5.11876 9.55804 4.7661C10.2851 3.65929 11.0772 0.946532 12.1243 0.322596C12.3359 0.197809 12.694 0.0567427 12.9381 0.018764H12.9436Z" fill="#FEFDF9"/>
<path d="M5.52683 12.9153C5.65162 13.0184 5.67332 13.2626 5.61906 13.4091C5.56481 13.5556 5.42917 13.5881 5.29896 13.6478C4.11619 14.1795 2.60247 14.4128 1.38715 14.9174C0.866302 14.977 0.725238 14.2989 1.19726 14.1144L5.18502 12.8177C5.28268 12.8068 5.4563 12.8557 5.52683 12.9099V12.9153Z" fill="#FEFDF9"/>
<path d="M20.9898 12.9152C21.0603 12.8555 21.2339 12.8067 21.3316 12.823L25.2922 14.098C25.7805 14.2825 25.6666 14.9878 25.1295 14.9281L20.9789 13.5392C20.8216 13.3981 20.8379 13.0509 20.9898 12.9206V12.9152Z" fill="#FEFDF9"/>
<path d="M13.1983 18.6934C13.3991 18.6554 13.6541 18.867 13.6703 19.0624C13.551 20.4133 13.8222 22.0138 13.6703 23.3322C13.6106 23.8422 12.9108 23.8748 12.8565 23.2834C12.7317 21.9433 12.9542 20.4242 12.8565 19.0624C12.8511 18.9213 13.0735 18.7151 13.2037 18.6934H13.1983Z" fill="#FEFDF9"/>
<path d="M20.2297 0.327946C20.5987 0.0132652 21.0653 0.365925 20.8971 0.816244L18.4664 4.16922C18.1192 4.53273 17.5712 4.2072 17.7665 3.72433L20.2297 0.327946Z" fill="#FEFDF9"/>
<path d="M6.28613 0.328134L8.74932 3.72451C8.94464 4.20739 8.39666 4.53292 8.04943 4.16941L5.61879 0.816432C5.45603 0.349837 5.89549 0.0297302 6.28613 0.328134Z" fill="#FEFDF9"/>
</svg>
