<svg width="36" height="36" viewBox="0 0 36 36" fill="none" xmlns="http://www.w3.org/2000/svg">
<rect width="36" height="36" rx="18" fill="#D3FFFF"/>
<path d="M10.2498 8.16324C18.1318 2.03533 29.7737 7.34678 30.3464 17.2453L30.3474 17.2628V18.8341L30.3279 18.9103C30.3066 18.9903 30.2926 19.0932 30.28 19.2316C30.2693 19.3502 30.2567 19.5303 30.2371 19.6779V19.6789C29.5167 25.0518 25.2748 29.4233 19.9382 30.3097L19.9285 30.3107L19.9177 30.3127L18.7058 30.4709L18.656 30.4767L18.6072 30.4748C18.3846 30.4668 18.156 30.4748 17.8992 30.4816C17.6549 30.4881 17.3852 30.493 17.1179 30.4738V30.4748C5.75986 29.8099 1.18886 15.2128 10.2498 8.16324ZM26.4558 23.0539C30.5102 16.1694 25.1694 7.6309 17.2244 8.11148C9.91116 8.55822 5.58254 16.7417 9.35913 23.0861C13.1355 29.4292 22.6336 29.5397 26.4558 23.0539ZM17.7322 14.9259C18.7334 14.8206 19.0848 15.5935 19.1375 16.4543C19.278 18.8608 19.0672 21.4432 19.0847 23.8673C18.9616 24.9212 17.6262 25.3599 16.9587 24.5168C16.6955 24.2006 16.6609 23.7614 16.6257 23.3576C16.4852 20.951 16.696 18.3687 16.6785 15.9445C16.7839 15.3824 17.135 14.9611 17.7322 14.9084V14.9259ZM17.7849 11.3595C19.5765 11.2016 19.5765 14.0301 17.6443 13.7492C16.2741 13.5559 16.362 11.5001 17.7849 11.3595Z" fill="#1F2125"/>
</svg>
