<svg width="30" height="26" viewBox="0 0 30 26" fill="none" xmlns="http://www.w3.org/2000/svg">
<path d="M0.771981 18.0947C0.742673 17.8017 0.742673 17.2082 0.771981 16.9151C1.00645 14.6217 3.10933 12.5555 5.40271 12.365C9.5352 12.0279 12.2023 15.9626 10.6049 19.758C9.65243 22.0147 7.71807 24.0737 5.95957 25.7223C4.69198 24.5866 3.48301 23.3043 2.50118 21.8902C1.81243 20.901 0.903869 19.2891 0.771981 18.0874V18.0947ZM5.81303 15.86C3.31449 16.0944 4.17176 19.9851 6.55306 19.0766C8.33355 18.3952 7.68144 15.6915 5.81303 15.86Z" fill="#FEFDF9"/>
<path d="M23.7131 0.0261779C27.3694 -0.325523 30.3002 2.92038 29.311 6.52532C28.5857 9.16307 26.2556 11.5077 24.3652 13.3762C23.3395 12.5335 22.4162 11.5297 21.5956 10.4893C19.7712 8.17391 18.1958 5.39694 19.903 2.51007C20.6651 1.21317 22.2038 0.180047 23.7205 0.0335052L23.7131 0.0261779ZM24.2187 3.50655C21.7788 3.69706 22.4749 7.48517 24.8342 6.76711C26.7026 6.1956 26.1457 3.35268 24.2187 3.50655Z" fill="#FEFDF9"/>
<path d="M20.9729 11.4126V13.0978H16.1736C15.9391 13.0978 15.331 13.4202 15.1332 13.5741C13.6824 14.7318 14.2319 17.1204 16.0271 17.5087C18.2032 17.9777 21.3612 16.9665 23.3102 18.1389C25.8454 19.6702 25.7721 23.4437 23.2076 24.9091C22.8193 25.1289 21.9913 25.444 21.559 25.444H9.30078V23.7881L9.38138 23.7075H21.7275C21.9107 23.7075 22.5189 23.3411 22.6801 23.2019C24.1748 21.9563 23.4201 19.4651 21.5004 19.2673C19.5807 19.0694 16.4594 19.7215 14.6789 18.791C11.7334 17.2376 11.9825 12.8853 15.0745 11.6617C15.2211 11.6031 15.7633 11.4053 15.8878 11.4053H20.9655L20.9729 11.4126Z" fill="#FEFDF9"/>
</svg>
