<svg width="36" height="37" viewBox="0 0 36 37" fill="none" xmlns="http://www.w3.org/2000/svg">
<rect y="0.666687" width="36" height="36" rx="18" fill="#D3FFFF"/>
<path d="M23.9766 26.9968C16.2718 26.6652 9.82307 20.6121 9.07952 12.9282C8.96705 11.7652 8.74875 10.2307 10.2907 10.0292C11.3589 10.0984 12.5502 9.9329 13.604 10.0331C14.2107 10.0907 14.7614 10.5662 14.844 11.1806C14.9249 11.7829 14.8916 12.3946 14.9947 13.0184C15.1337 13.8598 15.6679 14.7859 15.198 15.5604L13.6544 17.5997C13.63 17.6284 13.6239 17.6556 13.6295 17.6926C13.6428 17.7862 14.04 18.4328 14.1215 18.5634C15.029 20.0137 16.1926 21.1419 17.6619 22.0198C17.7672 22.0829 18.308 22.4045 18.3783 22.3863L20.4151 20.8385C21.1004 20.4078 21.634 20.7278 22.3105 20.8894C23.151 21.0904 23.848 21.0937 24.6891 21.1646C25.3373 21.2194 25.9158 21.6938 26 22.3569V25.8034C25.8809 26.4333 25.4365 26.8773 24.8054 26.9963C24.5301 26.9874 24.2508 27.0079 23.976 26.9963L23.9766 26.9968Z" fill="#1F2125"/>
</svg>
