<svg width="46" height="46" viewBox="0 0 46 46" fill="none" xmlns="http://www.w3.org/2000/svg">
<path d="M2.18785 30.3238C2.14572 29.9024 2.14572 29.0493 2.18785 28.628C2.52489 25.3313 5.54778 22.361 8.84452 22.0872C14.785 21.6027 18.6189 27.2587 16.3227 32.7147C14.9535 35.9588 12.1729 38.9184 9.645 41.2883C7.82285 39.6557 6.08495 37.8125 4.67357 35.7797C3.68349 34.3578 2.37744 32.0406 2.18785 30.3132V30.3238ZM9.43435 27.1113C5.8427 27.4483 7.07503 33.0412 10.4982 31.7351C13.0576 30.7556 12.1202 26.869 9.43435 27.1113Z" fill="#1F2125"/>
<path d="M35.1658 4.35013C40.4216 3.84456 44.6347 8.51055 43.2127 13.6926C42.17 17.4844 38.8206 20.8549 36.1032 23.5407C34.6286 22.3295 33.3015 20.8865 32.1218 19.3908C29.4992 16.0625 27.2346 12.0706 29.6888 7.92072C30.7842 6.05643 32.996 4.57132 35.1763 4.36066L35.1658 4.35013ZM35.8925 9.35317C32.3851 9.62702 33.3857 15.0724 36.7773 14.0402C39.4631 13.2187 38.6626 9.13198 35.8925 9.35317Z" fill="#1F2125"/>
<path d="M31.2262 20.7181V23.1406H24.3273C23.9903 23.1406 23.116 23.604 22.8317 23.8252C20.7462 25.4894 21.5361 28.923 24.1167 29.4813C27.2449 30.1554 31.7845 28.7018 34.5862 30.3871C38.2305 32.5884 38.1252 38.0128 34.4387 40.1193C33.8805 40.4353 32.6903 40.8882 32.0689 40.8882H14.4476V38.5078L14.5635 38.3919H32.3111C32.5744 38.3919 33.4486 37.8653 33.6804 37.6652C35.829 35.8746 34.7442 32.2935 31.9846 32.0091C29.225 31.7247 24.7381 32.6621 22.1786 31.3245C17.9445 29.0916 18.3026 22.8351 22.7474 21.0762C22.9581 20.9919 23.7375 20.7075 23.9165 20.7075H31.2157L31.2262 20.7181Z" fill="#1F2125"/>
</svg>
