<svg width="32" height="32" viewBox="0 0 32 32" fill="none" xmlns="http://www.w3.org/2000/svg">
<g opacity="0.5">
<path d="M1.5221 21.0947C1.49279 20.8017 1.49279 20.2082 1.5221 19.9151C1.75657 17.6217 3.85945 15.5555 6.15283 15.365C10.2853 15.0279 12.9524 18.9626 11.3551 22.758C10.4025 25.0147 8.46819 27.0737 6.70969 28.7223C5.4421 27.5866 4.23313 26.3043 3.2513 24.8902C2.56255 23.901 1.65399 22.2891 1.5221 21.0874V21.0947ZM6.56315 18.86C4.06461 19.0944 4.92188 22.9851 7.30319 22.0766C9.08367 21.3952 8.43156 18.6915 6.56315 18.86Z" fill="#1F2125"/>
<path d="M24.463 3.02618C28.1192 2.67448 31.0501 5.92038 30.0609 9.52532C29.3355 12.1631 27.0055 14.5077 25.1151 16.3762C24.0893 15.5335 23.1661 14.5297 22.3455 13.4893C20.521 11.1739 18.9457 8.39694 20.6529 5.51007C21.4149 4.21317 22.9536 3.18005 24.4703 3.03351L24.463 3.02618ZM24.9686 6.50655C22.5287 6.69706 23.2247 10.4852 25.5841 9.76711C27.4525 9.1956 26.8956 6.35268 24.9686 6.50655Z" fill="#1F2125"/>
<path d="M21.7226 14.4126V16.0978H16.9234C16.6889 16.0978 16.0807 16.4202 15.8829 16.5741C14.4321 17.7318 14.9817 20.1204 16.7768 20.5087C18.953 20.9777 22.1109 19.9665 24.06 21.1389C26.5951 22.6702 26.5219 26.4437 23.9574 27.9091C23.569 28.1289 22.7411 28.444 22.3088 28.444H10.0505V26.7881L10.1311 26.7075H22.4773C22.6605 26.7075 23.2686 26.3411 23.4298 26.2019C24.9246 24.9563 24.1699 22.4651 22.2502 22.2673C20.3305 22.0694 17.2091 22.7215 15.4286 21.791C12.4831 20.2376 12.7323 15.8853 15.8243 14.6617C15.9708 14.6031 16.513 14.4053 16.6376 14.4053H21.7153L21.7226 14.4126Z" fill="#1F2125"/>
</g>
</svg>
