<svg width="36" height="36" viewBox="0 0 36 36" fill="none" xmlns="http://www.w3.org/2000/svg">
<rect width="36" height="36" rx="18" fill="#D3FFFF"/>
<path d="M14.2061 8.04095C14.9808 7.97413 16.7969 7.97128 17.5128 8.17181C18.9527 8.57865 20.036 9.92121 20.1475 11.4169C20.1837 11.8989 20.0779 12.5456 20.1475 12.9941C20.1672 13.1222 20.3368 13.3143 20.3897 13.4619C20.6571 14.2139 20.2228 15.0047 19.4708 15.2109C19.3677 16.0159 19.0305 16.8078 18.4678 17.3984C18.3564 17.5152 17.8205 17.9075 17.7969 17.9492C17.7524 18.0411 17.7634 18.3142 17.8135 18.4062C18.0195 18.5538 18.1751 18.8159 18.3477 18.9775C19.3339 19.9163 22.2423 19.3623 22.6212 21.1396C22.819 22.6939 23.4069 24.3764 23.5684 25.914C23.638 26.5629 23.4347 27.2033 22.8555 27.5488C22.7831 27.5906 22.3842 27.7773 22.334 27.7773H20.6182L21.3262 22.0302C21.2704 21.4372 20.9332 21.0393 20.3262 20.9863H11.2833C10.3754 21.0533 10.1525 21.83 10.3223 22.621L10.9493 27.7773C10.4257 27.7271 9.77948 27.8441 9.27252 27.7773V27.7802C8.94675 27.7357 8.50365 27.4269 8.30573 27.1679C7.74858 26.4436 8.09377 25.5489 8.2442 24.7382C8.45031 23.6269 8.65392 22.2455 8.94635 21.1786C9.09121 20.6494 9.37269 20.2421 9.89362 20.0331C10.8017 19.6683 11.977 19.5706 12.9073 19.2197C13.066 19.1445 13.7594 18.4659 13.7881 18.3232C13.8745 17.8747 13.676 17.9189 13.4337 17.6933C12.7012 17.0137 12.2165 16.2476 12.1133 15.2255C11.353 14.9887 10.9103 14.2054 11.1944 13.4394C11.2529 13.2834 11.4036 13.1438 11.4258 12.999C11.5538 12.0741 11.15 10.7817 11.7628 9.98236C12.0135 9.65648 12.4259 9.41979 12.8409 9.3808C12.9161 8.70109 13.5208 8.10224 14.2061 8.04095ZM20.251 21.621C20.6602 21.6601 20.6799 21.8778 20.6631 22.2343C20.5739 23.9557 20.1221 25.7833 20.0274 27.5214L19.9141 27.7636L11.584 27.7831L11.5821 27.7802L10.9102 22.1142C10.8656 21.8412 11.0941 21.6155 11.3643 21.621H20.251ZM15.7188 23.997C14.7884 24.0917 14.9105 25.5991 15.9747 25.4013C16.7907 25.2509 16.6043 23.9084 15.7188 23.997ZM22.6602 15.2753C22.8635 15.1444 23.9468 15.1445 24.1505 15.2753C24.4122 15.4424 24.3847 16.1996 24.6993 16.3837C24.7549 16.4171 24.9775 16.5034 25.0391 16.5175C25.496 16.6094 25.8836 16.0584 26.2764 16.1503C26.3749 16.1739 27.0607 16.8483 27.1534 16.9687C27.3038 17.1637 27.3123 17.2139 27.2315 17.4423C27.1619 17.6373 26.8671 18.0607 26.8614 18.2167C26.8586 18.3058 27.0057 18.681 27.0616 18.7597C27.2677 19.0494 28.009 18.9749 28.2012 19.3398V20.6347C28.0313 21.0525 27.2957 20.9383 27.0616 21.2529C27.0142 21.3142 26.8947 21.585 26.878 21.663C26.7975 21.9945 27.3373 22.51 27.2872 22.8163C27.2609 22.9731 26.4279 23.8201 26.2794 23.8632C25.8977 23.9663 25.471 23.3762 25.003 23.496C24.9552 23.5074 24.7201 23.6125 24.6749 23.6406C24.335 23.8495 24.4707 24.7468 23.9776 24.7802L23.4268 21.7802C24.7972 21.8078 25.661 20.2695 24.959 19.0829C24.1902 17.7821 22.257 17.969 21.7276 19.3701L19.7159 18.8574C19.6888 18.8257 19.9633 18.3583 19.9522 18.2109C19.9184 17.7598 19.2869 17.439 19.6573 16.9628C19.7333 16.8673 20.4098 16.192 20.4766 16.1669C20.8833 15.9999 21.3009 16.6091 21.7715 16.5146C21.8801 16.4923 22.1805 16.3646 22.2422 16.2783C22.401 16.0555 22.4375 15.4204 22.6602 15.2753ZM17.1475 18.3066C16.2366 18.6186 15.3338 18.613 14.4229 18.3066C14.2312 20.554 17.3587 20.5624 17.1475 18.3066ZM14.8516 11.5038C14.5981 11.4647 13.9224 11.2474 13.7325 11.3554C13.3313 11.5838 13.2833 12.6567 13.1524 13.0634C13.0215 13.47 12.6484 13.192 12.3643 13.2226C12.225 13.2366 12.0497 13.3255 11.9522 13.4257C11.6459 13.7405 11.7044 14.2775 12.0831 14.5087C12.2668 14.6229 12.626 14.5955 12.7071 14.7929C12.7739 14.9516 12.7711 15.3389 12.8184 15.5507C13.526 18.6233 18 18.6763 18.7549 15.5898C18.8078 15.3779 18.8165 14.9211 18.8917 14.7763C18.9892 14.5875 19.217 14.6262 19.3868 14.5624C20.1055 14.2922 19.8937 13.2248 19.1387 13.2109C18.9355 13.2084 18.7327 13.3861 18.5518 13.1718C18.4405 13.0382 18.5069 12.6711 18.4903 12.4843C18.4012 11.4761 17.574 11.7536 16.8526 11.7148C16.184 11.6786 15.5118 11.6069 14.8516 11.5038Z" fill="#1F2125"/>
</svg>
