<svg width="26" height="25" viewBox="0 0 26 25" fill="none" xmlns="http://www.w3.org/2000/svg">
<path d="M12.5282 1.31494C12.9842 1.25237 13.5227 1.39164 13.8729 1.66064L13.8788 1.66455C14.02 1.77137 14.2171 2.00636 14.4579 2.41064C14.6895 2.79943 14.9203 3.27355 15.1561 3.78955C15.6003 4.76129 16.0961 5.97999 16.5741 6.70068L16.576 6.70264C17.0185 7.366 17.6136 7.66902 18.2782 7.80908V7.81006C19.0653 7.97666 20.1401 8.06178 21.0624 8.1626C22.0556 8.27118 22.8745 8.39797 23.371 8.60986L23.3729 8.61084C24.2383 8.97808 24.646 10.0709 24.2323 10.9937C24.1703 11.1304 24.0049 11.3657 23.705 11.6958C23.4189 12.0106 23.0611 12.3575 22.6747 12.7163C21.9388 13.3996 21.0356 14.178 20.5507 14.6978C20.2617 15.0074 20.0398 15.3348 19.9188 15.7378C19.8026 16.1254 19.8027 16.5104 19.828 16.8823V16.8862C19.8621 17.3614 19.9641 17.9098 20.0741 18.4478C20.1886 19.0074 20.3123 19.5581 20.4149 20.1187C20.5167 20.6743 20.5882 21.1879 20.5995 21.6333C20.6111 22.0901 20.5562 22.3969 20.4706 22.5835C20.3551 22.8353 20.1164 23.0963 19.7889 23.2954C19.4618 23.4943 19.1099 23.5914 18.8221 23.5854C18.6906 23.5822 18.4208 23.5177 17.994 23.3374C17.5897 23.1665 17.1271 22.9296 16.6405 22.6636C15.7204 22.1606 14.6313 21.5027 13.9452 21.2056L13.9442 21.2046C13.6598 21.0817 13.344 20.9619 12.9872 20.9292C12.705 20.9034 12.4382 20.9351 12.1698 21.0083L11.9003 21.0942C11.2185 21.3426 10.5015 21.7339 9.84363 22.1089C9.15967 22.4987 8.54347 22.8676 7.97644 23.145C7.47717 23.3879 7.17983 23.5161 6.9032 23.562C6.6688 23.6009 6.4022 23.5867 5.98816 23.4155C5.44517 23.1884 5.20424 22.8671 5.08386 22.481C4.9466 22.0404 4.94941 21.4558 5.05945 20.7212C5.1704 19.9805 5.36053 19.2432 5.53015 18.436C5.68831 17.6834 5.83313 16.8495 5.74988 16.1147V16.1138L5.70984 15.8892C5.58773 15.3786 5.27345 14.9616 5.03406 14.7017H5.03503L5.03113 14.6987L4.8075 14.4683C4.56744 14.2296 4.28172 13.9672 3.99011 13.7017C3.59036 13.3376 3.16547 12.9549 2.75964 12.5659C2.35313 12.1763 1.98729 11.8001 1.70886 11.4575C1.41445 11.0952 1.28545 10.8517 1.25281 10.7251C1.09813 10.1128 1.20978 9.62529 1.453 9.26807C1.70263 8.90146 2.14355 8.59742 2.76941 8.47021H2.77039C3.46083 8.32843 4.19884 8.25176 4.99207 8.16455C5.76523 8.07955 6.5897 7.98389 7.37195 7.79932L7.37292 7.80029C8.00504 7.65309 8.57813 7.36454 9.01355 6.70654L9.0155 6.70361C9.27521 6.30818 9.52427 5.79769 9.75867 5.2876C10.0094 4.74185 10.2296 4.23007 10.4882 3.6792C10.7384 3.14608 10.9855 2.66269 11.2362 2.27588C11.4955 1.87572 11.706 1.66208 11.8524 1.57373C12.0333 1.4672 12.3575 1.34394 12.5282 1.31494Z" fill="#FEDD00" stroke="#1F2125" stroke-width="1.71429"/>
</svg>
