<svg width="26" height="25" viewBox="0 0 26 25" fill="none" xmlns="http://www.w3.org/2000/svg">
<path d="M12.8767 1.31494C13.3327 1.25237 13.8712 1.39164 14.2214 1.66064L14.2273 1.66455C14.3685 1.77137 14.5656 2.00636 14.8064 2.41064C15.038 2.79943 15.2688 3.27355 15.5046 3.78955C15.9488 4.76129 16.4446 5.97999 16.9226 6.70068L16.9246 6.70264C17.367 7.366 17.9621 7.66902 18.6267 7.80908V7.81006C19.4139 7.97666 20.4886 8.06178 21.4109 8.1626C22.4041 8.27118 23.223 8.39797 23.7195 8.60986L23.7214 8.61084C24.5868 8.97808 24.9945 10.0709 24.5808 10.9937C24.5188 11.1304 24.3534 11.3657 24.0535 11.6958C23.7675 12.0106 23.4096 12.3575 23.0232 12.7163C22.2873 13.3996 21.3841 14.178 20.8992 14.6978C20.6102 15.0074 20.3883 15.3348 20.2673 15.7378C20.1511 16.1254 20.1513 16.5104 20.1765 16.8823V16.8862C20.2106 17.3614 20.3126 17.9098 20.4226 18.4478C20.5371 19.0074 20.6608 19.5581 20.7634 20.1187C20.8652 20.6743 20.9367 21.1879 20.948 21.6333C20.9596 22.0901 20.9047 22.3969 20.8191 22.5835C20.7036 22.8353 20.4649 23.0963 20.1375 23.2954C19.8103 23.4943 19.4584 23.5914 19.1707 23.5854C19.0391 23.5822 18.7693 23.5177 18.3425 23.3374C17.9382 23.1665 17.4756 22.9296 16.989 22.6636C16.069 22.1606 14.9798 21.5027 14.2937 21.2056L14.2927 21.2046C14.0083 21.0817 13.6925 20.9619 13.3357 20.9292C13.0535 20.9034 12.7867 20.9351 12.5183 21.0083L12.2488 21.0942C11.567 21.3426 10.85 21.7339 10.1921 22.1089C9.50818 22.4987 8.89198 22.8676 8.32495 23.145C7.82568 23.3879 7.52834 23.5161 7.25171 23.562C7.01731 23.6009 6.75071 23.5867 6.33667 23.4155C5.79368 23.1884 5.55275 22.8671 5.43237 22.481C5.29511 22.0404 5.29792 21.4558 5.40796 20.7212C5.51892 19.9805 5.70904 19.2432 5.87866 18.436C6.03682 17.6834 6.18164 16.8495 6.09839 16.1147V16.1138L6.05835 15.8892C5.93624 15.3786 5.62196 14.9616 5.38257 14.7017H5.38354L5.37964 14.6987L5.15601 14.4683C4.91595 14.2296 4.63023 13.9672 4.33862 13.7017C3.93887 13.3376 3.51399 12.9549 3.10815 12.5659C2.70164 12.1763 2.3358 11.8001 2.05737 11.4575C1.76296 11.0952 1.63396 10.8517 1.60132 10.7251C1.44664 10.1128 1.55829 9.62529 1.80151 9.26807C2.05114 8.90146 2.49206 8.59742 3.11792 8.47021H3.1189C3.80934 8.32843 4.54735 8.25176 5.34058 8.16455C6.11374 8.07955 6.93821 7.98389 7.72046 7.79932L7.72144 7.80029C8.35355 7.65309 8.92664 7.36454 9.36206 6.70654L9.36401 6.70361C9.62372 6.30818 9.87279 5.79769 10.1072 5.2876C10.358 4.74185 10.5782 4.23007 10.8367 3.6792C11.0869 3.14608 11.3341 2.66269 11.5847 2.27588C11.844 1.87572 12.0546 1.66208 12.2009 1.57373C12.3818 1.4672 12.706 1.34394 12.8767 1.31494Z" fill="#FEFDF9" stroke="#1F2125" stroke-width="1.71429"/>
</svg>
