<svg width="24" height="24" viewBox="0 0 24 24" fill="none" xmlns="http://www.w3.org/2000/svg">
<path d="M12.6716 2.2543L13.8934 2.43069C22.1448 4.09558 24.9841 14.5969 18.402 20.0992C12.3404 25.1628 3.03501 21.4888 1.9681 13.7322C1.93799 13.5085 1.94659 13.259 1.88206 13.0482C1.90357 12.5835 1.85195 12.0931 1.88206 11.6285C2.1832 6.73705 6.3648 2.55545 11.2562 2.25H12.6759L12.6716 2.2543ZM19.5205 11.1596C19.1806 8.56542 17.3437 6.27673 14.9517 5.27004C11.3509 3.75572 7.22952 5.1668 5.29789 8.531C4.84188 9.32688 4.49771 10.2389 4.39876 11.1596C5.81844 11.1424 7.15638 11.3144 8.48141 10.6949C9.9097 10.0238 10.2281 8.69018 12.1382 8.79343C13.7471 8.88377 14.1386 10.0711 15.412 10.682C16.6854 11.2929 18.0965 11.1424 19.5205 11.1596ZM11.794 11.1682C9.32032 11.4005 9.93551 15.2422 12.3963 14.6442C14.4656 14.1409 13.9665 10.966 11.794 11.1682ZM6.3605 14.7131C5.84855 14.7561 5.28929 14.9325 4.83757 15.1562C5.49149 16.8942 6.89396 18.4128 8.55885 19.2259C8.72663 19.3077 9.77203 19.7594 9.87528 19.6862C10.9723 17.247 9.02778 14.4894 6.3605 14.7131ZM16.9134 14.7131C14.685 14.9239 13.1922 17.2556 13.9192 19.3808C13.9837 19.5744 13.9881 19.7293 14.2075 19.6862C15.5712 19.4367 17.3781 17.9439 18.174 16.8383C18.3245 16.6275 19.172 15.2766 19.0731 15.1304C18.3804 14.8335 17.6749 14.6399 16.9134 14.7088V14.7131Z" fill="#1F2125"/>
<path d="M11.8328 12.3469C12.6588 12.2006 12.805 13.3837 12.0909 13.5085C11.2649 13.6547 11.1186 12.4717 11.8328 12.3469Z" fill="#1F2125"/>
</svg>
