<svg width="28" height="27" viewBox="0 0 28 27" fill="none" xmlns="http://www.w3.org/2000/svg">
<path d="M14.6456 0.00573621L16.2746 0.240915C27.2764 2.46078 31.0622 16.4625 22.2861 23.799C14.2039 30.5503 1.79678 25.6517 0.374237 15.3096C0.334084 15.0113 0.345556 14.6786 0.259515 14.3976C0.288195 13.7781 0.219362 13.1241 0.259515 12.5046C0.66104 5.98273 6.23651 0.407261 12.7584 0H14.6513L14.6456 0.00573621ZM23.7774 11.8794C23.3243 8.42056 20.875 5.36897 17.6857 4.02673C12.8846 2.00763 7.38946 3.88906 4.81396 8.37467C4.20594 9.43585 3.74705 10.6519 3.61512 11.8794C5.50802 11.8565 7.29194 12.0859 9.05865 11.2599C10.963 10.3651 11.3875 8.58691 13.9343 8.72457C16.0796 8.84503 16.6016 10.4282 18.2995 11.2427C19.9974 12.0572 21.8788 11.8565 23.7774 11.8794ZM13.4754 11.8909C10.1772 12.2006 10.9975 17.323 14.2785 16.5256C17.0375 15.8545 16.3722 11.6213 13.4754 11.8909ZM6.23077 16.6174C5.54817 16.6748 4.80249 16.91 4.2002 17.2082C5.07208 19.5256 6.94204 21.5504 9.1619 22.6346C9.38561 22.7435 10.7795 23.3458 10.9171 23.2483C12.3798 19.996 9.78714 16.3191 6.23077 16.6174ZM20.3014 16.6174C17.3301 16.8985 15.3397 20.0074 16.3091 22.8411C16.3951 23.0992 16.4008 23.3057 16.6934 23.2483C18.5117 22.9156 20.9209 20.9252 21.982 19.451C22.1828 19.17 23.3128 17.3688 23.1809 17.1738C22.2574 16.778 21.3167 16.5199 20.3014 16.6117V16.6174Z" fill="#FEFDF9"/>
<path d="M13.5272 13.4625C14.6285 13.2674 14.8236 14.8449 13.8714 15.0112C12.77 15.2062 12.575 13.6288 13.5272 13.4625Z" fill="#FEFDF9"/>
</svg>
