<svg width="46" height="46" viewBox="0 0 46 46" fill="none" xmlns="http://www.w3.org/2000/svg">
<path d="M22.2239 0.78295L23.4292 0.748512C41.0615 1.17899 51.5076 21.2506 41.1131 35.858C31.7632 49.0018 11.8351 48.0892 3.7709 34.1361C-4.64918 19.5631 5.54445 1.45449 22.2239 0.78295ZM22.5051 8.92179C21.759 9.04806 21.0932 9.80569 21.0128 10.5576C21.2826 14.65 20.6512 19.2073 21.0128 23.2422C21.0645 23.8449 21.3056 24.1261 21.6786 24.5681C22.9988 26.135 25.9776 29.1369 27.5503 30.434C29.8002 32.2879 32.2626 29.6477 30.4373 27.547L25.0134 22.0886L24.9732 10.3969C24.6288 9.26617 23.6875 8.72664 22.5109 8.92752L22.5051 8.92179Z" fill="black"/>
</svg>
